<svg xmlns="http://www.w3.org/2000/svg" width="253" height="38" fill="none"><path fill="#FF0" d="M234.44 7.16h5.056a21 21 0 0 1-.32 1.728 91 91 0 0 1-.384 1.6h10.528v4.896q-.353 4.16-1.824 7.36-1.471 3.168-3.552 5.216-2.048 2.048-4.224 3.296-2.143 1.248-4.032 1.984-1.856.736-3.04.992-1.184.288-1.216.256v-5.184q.031.033 1.248-.288 1.248-.352 3.04-1.216 1.792-.863 3.744-2.624a14.1 14.1 0 0 0 3.136-4.064q1.216-2.304 1.632-5.856h-7.392q-1.856 2.88-3.616 4.672-1.76 1.793-2.944 2.624-1.152.833-1.216.8v-6.176q.032 0 .704-.576.704-.607 1.6-1.92t1.728-3.104q.864-1.824 1.344-4.416M211.19 22.904V17.88h14.784v5.024zM207.871 15.928v5.024h-13.44v13.152h-5.056V7.288h5.056v8.64zM176.986 13.656h-11.584V8.504h18.4q-.672 3.712-2.08 6.88-1.376 3.169-3.04 5.728a56 56 0 0 0 2.848 3.456q1.44 1.569 2.464 2.432 1.056.832 1.088.864v6.112a54 54 0 0 1-3.136-2.432 40 40 0 0 1-3.008-2.848 42 42 0 0 1-3.104-3.712q-1.952 2.4-4 4.192-2.016 1.76-3.744 2.848t-2.784 1.568q-1.056.513-1.088.512v-5.728a21.7 21.7 0 0 0 4.992-3.456 34 34 0 0 0 4.192-4.64q1.952-2.592 3.584-6.624M160.12 32.472h-20.128V9.048h20.128zm-5.248-18.4h-9.664v13.376h9.664zM120.753 7.16h5.056a21 21 0 0 1-.32 1.728 91 91 0 0 1-.384 1.6h10.528v4.896q-.353 4.16-1.824 7.36-1.473 3.168-3.552 5.216-2.049 2.048-4.224 3.296-2.145 1.248-4.032 1.984-1.857.736-3.04.992-1.185.288-1.216.256v-5.184q.031.033 1.248-.288 1.248-.352 3.04-1.216 1.791-.863 3.744-2.624a14.2 14.2 0 0 0 3.136-4.064q1.215-2.304 1.632-5.856h-7.392q-1.857 2.88-3.616 4.672-1.76 1.793-2.944 2.624-1.153.833-1.216.8v-6.176q.032 0 .704-.576.703-.607 1.6-1.92.895-1.312 1.728-3.104.864-1.824 1.344-4.416M112.09 15.928v5.024H98.65v13.152h-5.056V7.288h5.056v8.64zm-10.336-3.52V7.352h2.432v5.056zm3.808 0V7.352h2.432v5.056zM74.44 22.904V17.88h14.784v5.024zM52.587 33.496v-5.248q3.968-.672 6.528-2.848 2.592-2.208 3.936-5.088 1.375-2.912 2.08-5.664.704-2.752.896-4.576.224-1.824.192-1.888h4.928q-.255 3.328-.8 5.984-.512 2.655-1.664 5.728t-3.296 5.952q-2.145 2.848-5.248 4.928-3.105 2.048-7.552 2.72m2.368-25.248L58.923 20.6h-5.184L49.835 8.248zM28.407 26.008V7.992h4.896v4.224H47v5.024H33.303v8.288q.065 1.215.768 1.952.736.704 2.72.8a61 61 0 0 0 5.024-.128q2.208-.16 5.184-.64v5.12a93 93 0 0 1-5.28.448q-2.4.16-5.312.096-3.519-.16-5.76-1.824t-2.24-5.344m18.08-19.104q0-.768-.512-1.248a1.7 1.7 0 0 0-1.248-.512q-.735 0-1.248.512-.48.48-.48 1.248 0 .736.48 1.248.513.48 1.248.48.736 0 1.248-.48.512-.511.512-1.248M41.975 4.12Q43.095 3 44.727 3q1.633 0 2.752 1.152 1.152 1.12 1.152 2.752T47.48 9.656q-1.12 1.12-2.752 1.12t-2.752-1.12-1.12-2.752 1.12-2.784M3 32.472v-5.024h7.968V14.072H3.576V9.048h19.808v5.024h-7.2v13.376h7.872v5.024z"/><path fill="#015EAB" d="M249.32 10.488h-10.528q.192-.769.384-1.6t.32-1.728h-5.056q-.48 2.592-1.344 4.416-.832 1.793-1.728 3.104l-.221.317q-.762 1.071-1.378 1.604l-.513.431q-.174.142-.192.144v6.177q.068.028 1.216-.801 1.184-.833 2.944-2.624t3.616-4.672h7.392q-.416 3.552-1.632 5.856l-.308.568a14.2 14.2 0 0 1-2.828 3.496q-1.952 1.76-3.744 2.624t-3.04 1.217q-1.216.319-1.248.287v5.184q.032.032 1.216-.256 1.185-.255 3.04-.992 1.888-.736 4.032-1.984 2.176-1.248 4.224-3.296 2.08-2.048 3.552-5.216 1.472-3.2 1.824-7.36zm-15.948 16.529q-.035-.029-.069-.055.035.026.069.055m-.177-.14-.108-.073q.055.035.108.074m-.502-.294-.035-.017zm-.34-.132-.044-.015-.034-.01zm-.197-.056-.063-.016zm-4.619-11.8-.077.049q-.003 0-.005.002.041-.027.082-.05m.192-.105-.038.02zm.356-.15-.075.03q.055-.023.111-.042zm.152-.048-.029.009q.119-.036.24-.062zm.475-.095-.022.002q.012 0 .022-.002m23.608 1.187q0 .127-.01.253c-.259 3.057-.938 5.86-2.088 8.361l-.005.01c-1.1 2.368-2.473 4.414-4.153 6.072l.001.001c-1.519 1.52-3.13 2.786-4.836 3.767-1.529.891-3.009 1.623-4.436 2.18l.001.001c-1.274.505-2.435.894-3.438 1.117-.401.098-.736.177-.986.23a7 7 0 0 1-.405.075 3.141 3.141 0 0 1-1.453-.107 3 3 0 0 1-2.08-2.856v-5.184a3 3 0 0 1 2.649-2.978h.005c.157-.037.415-.102.791-.201.6-.17 1.436-.495 2.54-1.027.871-.42 1.885-1.11 3.038-2.15 1.035-.933 1.856-1.999 2.477-3.207l.015-.03q.332-.626.608-1.455h-2.116c-1.011 1.45-2.034 2.715-3.075 3.774-1.21 1.232-2.329 2.246-3.329 2.953l.001.001c-.393.284-.728.52-.987.69-.12.08-.28.181-.444.271a3.125 3.125 0 0 1-1.036.366c-.162.028-.964.166-1.846-.276a3 3 0 0 1-1.659-2.683v-6.176a3 3 0 0 1 1.278-2.455l.014-.011c.091-.074.24-.2.459-.388.185-.162.545-.557 1.076-1.334.485-.71.983-1.596 1.484-2.675l.01-.021c.437-.922.819-2.132 1.105-3.678l.061-.262a3 3 0 0 1 2.889-2.192h5.056a3 3 0 0 1 2.981 3.328h6.843a3 3 0 0 1 3 3zm-19.301 11.374q-.08-.049-.156-.09.08.044.156.09m-.185-.106"/><path fill="#015EAB" d="M225.974 17.88h-14.785v5.024h14.785zm3 5.024a3 3 0 0 1-3 3h-14.785a3 3 0 0 1-3-3V17.88a3 3 0 0 1 3-3h14.785a3 3 0 0 1 3 3z"/><path fill="#015EAB" d="M207.871 20.952v-5.024h-13.439v-8.64h-5.057v26.817h5.057V20.952zm-10.439-8.024h10.439a3 3 0 0 1 3 3v5.024a3 3 0 0 1-3 3h-10.439v10.153a3 3 0 0 1-3 3h-5.057a3 3 0 0 1-3-3V7.288a3 3 0 0 1 3-3h5.057a3 3 0 0 1 3 3z"/><path fill="#015EAB" d="M162.402 8.504a3 3 0 0 1 3-3h18.4a3 3 0 0 1 2.952 3.534c-.487 2.69-1.246 5.216-2.29 7.564h-.001a45 45 0 0 1-2.136 4.284q.726.886 1.436 1.678h-.001c.896.974 1.609 1.669 2.148 2.126l.974.772.083.067.055.047.052.045a2.998 2.998 0 0 1 1.008 2.243v6.113a3 3 0 0 1-4.757 2.431 57 57 0 0 1-3.309-2.568 43 43 0 0 1-3.241-3.065l-.019-.02q-.523-.555-1.033-1.139a34 34 0 0 1-1.913 1.818l-.003.002c-1.428 1.247-2.802 2.297-4.119 3.127-1.164.733-2.202 1.325-3.074 1.728a77 77 0 0 1-1.097.523l-.161.068a3 3 0 0 1-.408.132c-.045.01-.343.09-.73.09a3 3 0 0 1-3-3v-5.728a3 3 0 0 1 1.646-2.677 18.7 18.7 0 0 0 4.306-2.978l.016-.015a31 31 0 0 0 3.82-4.23q.607-.806 1.203-1.82h-6.807a3 3 0 0 1-3-3zm3 5.152h11.584q-1.632 4.032-3.584 6.624l-.493.64a33.3 33.3 0 0 1-3.699 4 21.7 21.7 0 0 1-4.992 3.456v5.729q.032 0 1.088-.513.792-.36 1.963-1.062l.821-.506q1.728-1.088 3.744-2.848 2.048-1.792 4-4.192a42 42 0 0 0 3.104 3.712 40 40 0 0 0 3.008 2.848q1.408 1.184 3.136 2.433v-6.113q-.032-.032-1.088-.864a24 24 0 0 1-1.77-1.691l-.694-.74a56 56 0 0 1-2.848-3.457q1.663-2.56 3.04-5.728 1.407-3.168 2.08-6.88h-18.4z"/><path fill="#015EAB" d="M160.12 9.048h-20.128v23.424h20.128zm-5.248 5.024v13.376h-9.664V14.072zm-6.664 10.376h3.664v-7.376h-3.664zm14.912 8.024a3 3 0 0 1-3 3h-20.128a3 3 0 0 1-3-3V9.048a3 3 0 0 1 3-3h20.128a3 3 0 0 1 3 3z"/><path fill="#015EAB" d="M135.633 10.488h-10.529q.192-.769.384-1.6t.321-1.728h-5.056q-.48 2.592-1.345 4.416-.831 1.793-1.727 3.104l-.221.317q-.763 1.071-1.379 1.604l-.513.431a1.3 1.3 0 0 1-.191.144v6.177q.067.028 1.216-.801 1.183-.833 2.943-2.624t3.616-4.672h7.393q-.416 3.552-1.633 5.856l-.308.568a14.1 14.1 0 0 1-2.828 3.496q-1.952 1.76-3.744 2.624-1.791.864-3.04 1.217-1.216.319-1.248.287v5.184q.032.032 1.217-.256 1.184-.255 3.04-.992 1.888-.736 4.031-1.984 2.177-1.248 4.225-3.296 2.079-2.048 3.552-5.216 1.471-3.2 1.824-7.36zm-15.948 16.529q-.035-.029-.07-.055.035.026.07.055m-.679-.434-.035-.017zm-.341-.132-.044-.015-.033-.01zm-.196-.056-.064-.016zm-4.619-11.8-.078.049q-.002 0-.004.002.04-.027.082-.05m.191-.105-.037.02zm.356-.15-.075.03q.055-.023.112-.042zm.153-.048-.029.009q.117-.036.24-.062zm.474-.095-.021.002q.01 0 .021-.002m23.609 1.187q0 .127-.011.253c-.259 3.057-.937 5.86-2.088 8.361l-.005.01c-1.1 2.368-2.472 4.414-4.152 6.072l.001.001c-1.52 1.52-3.13 2.786-4.837 3.767h.001c-1.53.891-3.01 1.623-4.437 2.18l.001.001c-1.274.505-2.434.894-3.437 1.117-.402.098-.737.177-.986.23a7 7 0 0 1-.406.075 3.143 3.143 0 0 1-1.453-.107 3.003 3.003 0 0 1-2.08-2.855v-5.185a3 3 0 0 1 2.65-2.978h.004c.157-.037.415-.102.791-.201.6-.17 1.436-.495 2.54-1.027.871-.42 1.885-1.11 3.039-2.15 1.035-.933 1.855-1.999 2.476-3.207l.016-.03q.333-.626.607-1.455h-2.115c-1.012 1.45-2.035 2.715-3.075 3.774-1.21 1.232-2.329 2.246-3.329 2.953l.001.001c-.393.284-.729.52-.988.69-.12.08-.279.181-.443.271a3.148 3.148 0 0 1-1.036.366c-.163.028-.964.166-1.847-.276a3 3 0 0 1-1.658-2.683v-6.176c0-1.016.505-1.913 1.277-2.455l.015-.011c.09-.074.24-.2.459-.388.185-.162.545-.557 1.075-1.334.485-.71.983-1.596 1.485-2.675l.009-.021c.437-.922.819-2.132 1.106-3.678l.06-.262a3 3 0 0 1 2.89-2.192h5.056a3 3 0 0 1 2.98 3.328h6.844a3 3 0 0 1 3 3zm-19.487 11.268"/><path fill="#015EAB" d="M101.754 7.353v5.055h2.433V7.353zm3.808 5.055h2.432V7.353h-2.432zm5.432 0q0 .266-.045.52h1.141a3 3 0 0 1 3 3v5.024a3 3 0 0 1-3 3h-10.44v10.153a3 3 0 0 1-3 3h-5.056a3 3 0 0 1-3-3V7.288a3 3 0 0 1 3-3h5.056c.59 0 1.14.173 1.604.468a3 3 0 0 1 1.5-.403h2.433q.355.002.687.08a3 3 0 0 1 .688-.08h2.432a3 3 0 0 1 3 3zm-17.4 21.697h5.056V20.952h13.44v-5.024H98.65v-8.64h-5.056z"/><path fill="#015EAB" d="M89.224 17.88H74.439v5.024h14.785zm3 5.024a3 3 0 0 1-3 3H74.439a3 3 0 0 1-3-3V17.88a3 3 0 0 1 3-3h14.785a3 3 0 0 1 3 3z"/><path fill="#015EAB" d="M71.147 5.185a3 3 0 0 1 2.99 3.23c-.176 2.301-.456 4.412-.845 6.32-.38 1.967-.985 4.04-1.8 6.214-.876 2.335-2.117 4.566-3.699 6.69l-.01.013c-1.64 2.18-3.64 4.052-5.974 5.617l-.018.011c-2.5 1.65-5.449 2.683-8.756 3.183a3 3 0 0 1-3.448-2.967v-5.248a3 3 0 0 1 2.499-2.958c1.855-.314 3.31-.9 4.45-1.69H53.74a3 3 0 0 1-2.861-2.096L47.21 9.9a4 4 0 0 0 .269-.245q1.15-1.12 1.15-2.752 0-.697-.21-1.3c.43-.23.914-.356 1.415-.356h5.12l.242.01c1.203.097 2.24.91 2.614 2.073l3.239 10.081a27 27 0 0 0 1.175-3.508c.45-1.76.711-3.131.818-4.146l.006-.052a70 70 0 0 0 .153-1.321q.014-.141.018-.201a3 3 0 0 1 2.999-3zM49.835 8.248l3.904 12.353h5.184L54.955 8.248zm13.57.97q.008.027.02.055zm-.053-.154.01.03q-.008-.022-.014-.046zM52.587 33.496q4.17-.63 7.158-2.47l.394-.25q2.91-1.95 4.976-4.575l.272-.352q2.01-2.7 3.148-5.57l.148-.383q1.152-3.071 1.664-5.728.543-2.655.8-5.983h-4.928q.03.067-.193 1.887l-.055.471q-.225 1.698-.84 4.105l-.187.69a32.4 32.4 0 0 1-1.893 4.975l-.173.357q-1.333 2.66-3.763 4.73l-.326.266q-2.482 1.952-6.202 2.582z"/><path fill="#015EAB" d="M46.999 17.24v-5.024H33.304V7.992h-4.897v18.016q0 3.68 2.24 5.345 2.241 1.663 5.76 1.823 2.913.063 5.313-.096a93 93 0 0 0 5.279-.448v-5.12q-2.976.48-5.184.64l-1.141.068a66 66 0 0 1-3.883.06q-1.86-.09-2.623-.715l-.097-.085q-.704-.735-.767-1.952V17.24zM44.727 6.981l-.61.573c.158.151.304.222.61.222.32 0 .466-.076.631-.24l-.59-.592zm.904-.077c0-.274-.06-.41-.214-.569l-.61.571.57.609.01-.01c.178-.172.244-.309.244-.6m-.944-.04-.605-.605c-.16.18-.227.35-.227.645 0 .307.072.452.223.61zm.04-.864c-.289 0-.434.065-.582.2l.582.62.569-.606C45.138 6.06 45.002 6 44.727 6m3.904.904q0-1.632-1.151-2.752Q46.36 3 44.728 3q-1.633 0-2.752 1.12-1.12 1.152-1.12 2.784t1.12 2.752 2.752 1.12 2.752-1.12q1.08-1.05 1.147-2.55zm-2.151.181a1.68 1.68 0 0 1-.504 1.067q-.513.48-1.248.48-.645 0-1.117-.367l-.131-.113a1.76 1.76 0 0 1-.481-1.248q0-.768.48-1.248a1.7 1.7 0 0 1 1.249-.511q.735 0 1.248.511.51.48.511 1.248zm5.15-.18q0 .69-.124 1.343h-1.671l.737 2.335q-.295.46-.673.879c.063.241.1.493.1.754v5.024a3 3 0 0 1-3 3H36.304v4.984q.228.035.591.056a58 58 0 0 0 4.704-.12c1.36-.098 2.997-.299 4.923-.61a3 3 0 0 1 3.477 2.962v5.12a3 3 0 0 1-2.668 2.982 96 96 0 0 1-5.452.462h-.001a64 64 0 0 1-5.536.1l-.07-.003c-2.788-.127-5.328-.863-7.414-2.412-2.486-1.847-3.45-4.68-3.45-7.753V7.992a3 3 0 0 1 3-3h4.896a3 3 0 0 1 3 3v1.224h1.931a7 7 0 0 1-.38-2.312c0-1.855.669-3.537 1.97-4.875l.03-.03C41.183.671 42.87 0 44.728 0c1.855 0 3.529.682 4.841 2.001h.001q.014.015.028.028l.032.032h-.001c1.32 1.312 2.002 2.987 2.002 4.843"/><path fill="#015EAB" d="M24.056 27.448h-7.871V14.072h7.199V9.048H3.576v5.024h7.392v13.376H3v5.024h21.056zm2.328-13.376a3 3 0 0 1-3 3h-4.2v7.376h4.872a3 3 0 0 1 3 3v5.024a3 3 0 0 1-3 3H3a3 3 0 0 1-3-3v-5.024a3 3 0 0 1 3-3h4.968v-7.376H3.576a3 3 0 0 1-3-3V9.048a3 3 0 0 1 3-3h19.808a3 3 0 0 1 3 3z"/></svg>